<?xml version="1.0" encoding="iso-8859-1"?>
<!-- Generator: Adobe Illustrator 19.0.0, SVG Export Plug-In . SVG Version: 6.00 Build 0)  -->
<svg version="1.1" id="Layer_1" xmlns="http://www.w3.org/2000/svg" xmlns:xlink="http://www.w3.org/1999/xlink" x="0px" y="0px"
	 viewBox="0 0 512.001 512.001" style="enable-background:new 0 0 512.001 512.001;" xml:space="preserve">
<path style="fill:#F1CB30;" d="M462.782,220.006c0-4.738-3.706-9.752-8.236-11.142l-243.511-74.582
	c-4.531-1.387-6.613,0.999-4.624,5.3l45.309,98.382c1.983,4.301,7.14,9.419,11.456,11.372l62.122,28.14
	c4.318,1.949,4.421,5.35,0.229,7.559L60.451,424.492c-4.194,2.207-4.733,1.427-1.197-1.726l101.841-90.711
	c3.537-3.153,6.43-9.607,6.43-14.345l0.072-275.002c-0.003-4.738-3.711-9.755-8.241-11.146L57.446,0.358
	c-4.531-1.384-8.239,1.363-8.239,6.101v417.199c0,4.738,3.175,10.839,7.056,13.558l103.561,72.577
	c3.88,2.719,10.384,2.962,14.456,0.536l281.113-167.471c4.07-2.426,7.402-8.286,7.402-13.024L462.782,220.006z"/>
<g>
</g>
<g>
</g>
<g>
</g>
<g>
</g>
<g>
</g>
<g>
</g>
<g>
</g>
<g>
</g>
<g>
</g>
<g>
</g>
<g>
</g>
<g>
</g>
<g>
</g>
<g>
</g>
<g>
</g>
</svg>
